<?xml version="1.0" encoding="UTF-8"?>
<svg id="Layer_2" data-name="Layer 2" xmlns="http://www.w3.org/2000/svg" viewBox="0 0 136.52 52.66">
  <defs>
    <style>
      .cls-1 {
        stroke-width: 0px;
      }
    </style>
  </defs>
  <path class="cls-1" d="M59.67,20.45c-1.8,0-3.29-.53-4.46-1.58-1.13-1.06-1.69-2.39-1.69-4s.43-3.3,1.3-4.93c.86-1.63,1.99-3.1,3.38-4.39.7-.65,1.45-1.24,2.27-1.78.82-.54,1.69-1.01,2.63-1.42.98-.46,1.95-.79,2.9-.99.95-.2,1.84-.31,2.68-.31,1.54,0,2.81.3,3.82.9.55-1.3,1.08-1.94,1.58-1.94.82,0,1.22.16,1.22.47-.58.74-1.04,1.34-1.4,1.8-.36.46-.6.78-.72.97-1.42,1.92-2.12,3.32-2.12,4.21l.14.54s-.02.07-.07.07c-.29,0-.43-.31-.43-.94,0-1.08.48-2.59,1.44-4.54-.74-.67-1.79-1.01-3.13-1.01-2.06,0-4.16.66-6.3,1.98-2.14,1.3-3.92,2.95-5.36,4.97-.72.98-1.24,1.94-1.57,2.86-.32.92-.49,1.81-.49,2.65,0,1.06.24,2,.72,2.84.48.84,1.14,1.49,1.98,1.96.84.47,1.79.7,2.84.7,1.68,0,3.28-.34,4.81-1.03,1.52-.68,2.96-1.73,4.3-3.15.34-.34.58-.5.72-.5.1,0,.14.07.14.22,0,.22-.11.44-.32.68-1.27,1.44-2.94,2.58-5,3.42-2.09.84-4.02,1.26-5.8,1.26Z"/>
  <path class="cls-1" d="M60.25,29.04c-.72,0-1.33-.31-1.82-.94-.49-.62-.74-1.36-.74-2.2,0-1.85.97-4.15,2.92-6.91.98-1.39,2.02-2.69,3.1-3.89,1.08-1.2,2.22-2.3,3.42-3.31,2.42-2.02,4.27-3.02,5.54-3.02.43,0,.65.13.65.4,0,.1-.06.17-.18.21-1.51.77-2.93,1.73-4.25,2.88-.67.58-1.39,1.26-2.14,2.05-.76.79-1.58,1.68-2.47,2.66-1.75,1.97-3.12,3.84-4.1,5.62-.96,1.78-1.44,3.17-1.44,4.18,0,.91.37,1.37,1.12,1.37.62,0,1.2-.11,1.73-.32.48-.17,1.4-.86,2.77-2.09.7-.6,1.59-1.46,2.68-2.57,1.09-1.12,2.38-2.49,3.87-4.12,2.98-3.26,4.64-4.9,5-4.9s.54.14.54.43c-.14,2.18-.22,3.82-.22,4.9,0,4.63.54,6.95,1.62,6.95s2.04-1.07,2.88-3.21c.84-2.16,1.26-4.19,1.26-6.08,0-2.9-.74-4.6-2.23-5.08-.07-.05-.11-.08-.11-.11,0-.24.38-.36,1.15-.36s1.39.5,1.87,1.49c.48,1,.72,2.33.72,4.01,0,2.66-.54,4.99-1.62,6.98-1.08,1.97-2.45,2.95-4.1,2.95-1.97,0-2.95-2.02-2.95-6.05,0-1.56.14-3.4.43-5.51-.34.34-.89.96-1.66,1.87-.77.91-1.79,2.11-3.06,3.6-1.22,1.46-2.33,2.71-3.33,3.74-1,1.03-1.88,1.86-2.65,2.48-1.54,1.25-2.94,1.87-4.21,1.87Z"/>
  <g>
    <path class="cls-1" d="M6.44,35.48c-.26-.34-.57-.6-.95-.77s-.77-.26-1.18-.26c-.47,0-.91.1-1.3.29-.4.19-.74.45-1.03.77-.29.32-.51.7-.67,1.13s-.24.87-.24,1.34c0,.5.08.96.24,1.39.16.43.38.8.67,1.12.28.32.62.57,1.02.75s.83.28,1.31.28c.52,0,.98-.1,1.39-.3.41-.21.76-.5,1.07-.88l.76.64c-.38.51-.85.89-1.39,1.13-.54.24-1.15.36-1.83.36-.61,0-1.18-.11-1.7-.34-.53-.22-.99-.53-1.37-.93-.39-.4-.69-.87-.91-1.41-.22-.54-.33-1.14-.33-1.79s.11-1.21.32-1.75.51-1.02.89-1.42c.38-.4.84-.72,1.37-.95.53-.23,1.11-.35,1.74-.35.58,0,1.13.1,1.66.31.53.21.98.55,1.34,1.02l-.88.64Z"/>
    <path class="cls-1" d="M9.18,33.73h1.01v3.6h4.54v-3.6h1.01v8.5h-1.01v-3.96h-4.54v3.96h-1.01v-8.5Z"/>
    <path class="cls-1" d="M18.08,33.73h2.17c.41,0,.81.02,1.22.07.4.05.77.15,1.09.31.32.16.58.39.78.7.2.31.3.73.3,1.25,0,.62-.19,1.13-.56,1.51-.38.38-.9.63-1.56.73l2.41,3.91h-1.24l-2.3-3.82h-1.3v3.82h-1.01v-8.5ZM19.09,37.47h.9c.28,0,.57,0,.87-.02.3-.02.58-.07.83-.16s.46-.23.62-.41c.16-.19.25-.46.25-.81,0-.3-.06-.55-.18-.73-.12-.18-.28-.33-.47-.43-.2-.1-.42-.17-.66-.2-.24-.03-.49-.05-.74-.05h-1.42v2.81Z"/>
    <path class="cls-1" d="M25.66,33.73h1.01v8.5h-1.01v-8.5Z"/>
    <path class="cls-1" d="M33.05,35.23c-.17-.27-.39-.47-.67-.59-.28-.12-.57-.19-.88-.19-.22,0-.44.03-.66.08-.22.06-.41.14-.58.25-.17.11-.31.26-.41.44s-.16.4-.16.65c0,.19.03.36.09.51s.16.28.29.4c.14.12.32.23.55.34.23.1.52.21.85.31.33.1.65.22.95.34.31.12.58.27.82.46.24.18.42.41.56.69.14.28.21.62.21,1.04s-.08.79-.25,1.1-.39.57-.67.77c-.28.21-.59.36-.95.46-.36.1-.73.15-1.12.15-.25,0-.5-.02-.74-.07-.25-.04-.49-.11-.71-.21-.23-.09-.44-.21-.64-.36-.2-.15-.37-.33-.52-.55l.86-.71c.18.31.44.55.77.71s.68.24,1.04.24c.22,0,.43-.03.65-.1.22-.06.42-.16.59-.28.18-.12.32-.28.43-.46.11-.18.17-.4.17-.63,0-.26-.04-.48-.13-.64-.09-.16-.22-.31-.41-.43-.18-.12-.42-.23-.7-.32-.28-.1-.61-.21-.98-.34-.3-.1-.58-.21-.84-.33s-.48-.28-.67-.46-.34-.4-.44-.65-.16-.55-.16-.91c0-.41.08-.76.24-1.07.16-.3.38-.56.65-.76.27-.2.58-.36.92-.46.34-.1.7-.16,1.08-.16.48,0,.92.07,1.31.22.4.15.75.41,1.06.77l-.83.72Z"/>
    <path class="cls-1" d="M41.63,34.66h-2.81v7.56h-1.01v-7.56h-2.81v-.94h6.62v.94Z"/>
    <path class="cls-1" d="M47,42.44c-.65,0-1.24-.11-1.78-.34s-1.01-.53-1.4-.93-.7-.87-.92-1.42c-.22-.55-.33-1.14-.33-1.78s.11-1.23.33-1.78c.22-.55.53-1.02.92-1.42.4-.4.86-.71,1.4-.93s1.13-.34,1.78-.34,1.24.11,1.78.34,1.01.53,1.4.93c.4.4.7.87.92,1.42.22.55.33,1.14.33,1.78s-.11,1.23-.33,1.78c-.22.55-.53,1.02-.92,1.42s-.86.71-1.4.93-1.13.34-1.78.34ZM47,41.5c.5,0,.95-.09,1.36-.28.41-.18.77-.44,1.06-.76.3-.32.53-.69.69-1.12.16-.43.25-.89.25-1.37s-.08-.95-.25-1.37c-.16-.43-.39-.8-.69-1.12-.3-.32-.65-.57-1.06-.76-.41-.18-.87-.28-1.36-.28s-.95.09-1.36.28c-.41.18-.77.44-1.06.76s-.53.69-.69,1.12c-.16.43-.25.89-.25,1.37s.08.95.25,1.37c.16.43.39.8.69,1.12s.65.57,1.06.76c.41.18.87.28,1.36.28Z"/>
    <path class="cls-1" d="M53.3,33.73h2.52c.39,0,.77.04,1.12.11.36.08.67.2.95.38s.5.42.66.72c.16.3.25.67.25,1.11,0,.46-.09.85-.26,1.15-.18.3-.4.54-.68.72-.28.18-.58.3-.91.37-.33.07-.64.11-.94.11h-1.7v3.82h-1.01v-8.5ZM54.31,37.47h1.7c.5,0,.91-.11,1.23-.34.32-.23.47-.58.47-1.06s-.16-.83-.47-1.06c-.32-.23-.73-.34-1.23-.34h-1.7v2.81Z"/>
    <path class="cls-1" d="M60.66,33.73h1.01v3.6h4.54v-3.6h1.01v8.5h-1.01v-3.96h-4.54v3.96h-1.01v-8.5Z"/>
    <path class="cls-1" d="M69.56,33.73h5.34v.94h-4.33v2.66h4.04v.94h-4.04v3.02h4.55v.94h-5.56v-8.5Z"/>
    <path class="cls-1" d="M76.92,33.73h2.17c.41,0,.81.02,1.22.07.4.05.77.15,1.09.31.32.16.58.39.78.7.2.31.3.73.3,1.25,0,.62-.19,1.13-.56,1.51-.38.38-.9.63-1.56.73l2.41,3.91h-1.24l-2.3-3.82h-1.3v3.82h-1.01v-8.5ZM77.93,37.47h.9c.28,0,.57,0,.87-.02.3-.02.58-.07.83-.16s.46-.23.62-.41c.16-.19.25-.46.25-.81,0-.3-.06-.55-.18-.73-.12-.18-.28-.33-.47-.43-.2-.1-.42-.17-.66-.2-.24-.03-.49-.05-.74-.05h-1.42v2.81Z"/>
    <path class="cls-1" d="M87.08,33.73h1.12l1.93,7.06h.02l2.09-7.06h1.13l2.08,7.06h.02l1.97-7.06h1.06l-2.5,8.5h-1.09l-2.1-7.2h-.02l-2.11,7.2h-1.1l-2.48-8.5Z"/>
    <path class="cls-1" d="M99.86,33.73h1.01v8.5h-1.01v-8.5Z"/>
    <path class="cls-1" d="M103.22,33.73h1.01v7.56h3.89v.94h-4.9v-8.5Z"/>
    <path class="cls-1" d="M109.46,33.73h1.01v7.56h3.89v.94h-4.9v-8.5Z"/>
    <path class="cls-1" d="M115.7,33.73h1.01v8.5h-1.01v-8.5Z"/>
    <path class="cls-1" d="M121.82,33.73h.95l3.61,8.5h-1.18l-.86-2.09h-4.25l-.88,2.09h-1.14l3.74-8.5ZM122.28,35.02h-.02l-1.76,4.18h3.47l-1.68-4.18Z"/>
    <path class="cls-1" d="M127.75,33.73h1.5l2.88,6.66h.02l2.9-6.66h1.46v8.5h-1.01v-7.13h-.02l-3.05,7.13h-.61l-3.05-7.13h-.02v7.13h-1.01v-8.5Z"/>
  </g>
  <g>
    <path class="cls-1" d="M38.14,46.85h1.68c.26,0,.51.03.75.08s.45.14.63.26.33.28.44.48c.11.2.16.45.16.74,0,.31-.06.57-.18.77-.12.2-.27.36-.45.48-.18.12-.39.2-.6.25-.22.05-.43.07-.62.07h-1.14v2.54h-.67v-5.66ZM38.81,49.35h1.14c.34,0,.61-.08.82-.23.21-.15.32-.39.32-.71s-.11-.56-.32-.71c-.21-.15-.48-.23-.82-.23h-1.14v1.87Z"/>
    <path class="cls-1" d="M43.04,46.85h.67v2.4h3.02v-2.4h.67v5.66h-.67v-2.64h-3.02v2.64h-.67v-5.66Z"/>
    <path class="cls-1" d="M51.61,52.66c-.43,0-.83-.07-1.19-.22s-.67-.36-.94-.62c-.26-.26-.47-.58-.62-.94-.15-.37-.22-.76-.22-1.19s.07-.82.22-1.19c.15-.37.35-.68.62-.94.26-.26.58-.47.94-.62s.76-.22,1.19-.22.83.07,1.19.22.67.36.94.62.47.58.62.94c.15.37.22.76.22,1.19s-.07.82-.22,1.19c-.15.37-.35.68-.62.94s-.58.47-.94.62-.76.22-1.19.22ZM51.61,52.04c.33,0,.63-.06.91-.18.27-.12.51-.29.71-.5.2-.21.35-.46.46-.75s.16-.59.16-.92-.05-.63-.16-.92c-.11-.29-.26-.53-.46-.75-.2-.21-.43-.38-.71-.5-.27-.12-.58-.18-.91-.18s-.63.06-.91.18c-.27.12-.51.29-.71.5-.2.21-.35.46-.46.75-.11.29-.16.59-.16.92s.05.63.16.92.26.53.46.75c.2.21.43.38.71.5.27.12.58.18.91.18Z"/>
    <path class="cls-1" d="M59.61,47.48h-1.87v5.04h-.67v-5.04h-1.87v-.62h4.42v.62Z"/>
    <path class="cls-1" d="M63.2,52.66c-.43,0-.83-.07-1.19-.22s-.67-.36-.94-.62c-.26-.26-.47-.58-.62-.94-.15-.37-.22-.76-.22-1.19s.07-.82.22-1.19c.15-.37.35-.68.62-.94.26-.26.58-.47.94-.62s.76-.22,1.19-.22.83.07,1.19.22.67.36.94.62.47.58.62.94c.15.37.22.76.22,1.19s-.07.82-.22,1.19c-.15.37-.35.68-.62.94s-.58.47-.94.62-.76.22-1.19.22ZM63.2,52.04c.33,0,.63-.06.91-.18.27-.12.51-.29.71-.5.2-.21.35-.46.46-.75s.16-.59.16-.92-.05-.63-.16-.92c-.11-.29-.26-.53-.46-.75-.2-.21-.43-.38-.71-.5-.27-.12-.58-.18-.91-.18s-.63.06-.91.18c-.27.12-.51.29-.71.5-.2.21-.35.46-.46.75-.11.29-.16.59-.16.92s.05.63.16.92.26.53.46.75c.2.21.43.38.71.5.27.12.58.18.91.18Z"/>
    <path class="cls-1" d="M72.21,52.13c-.33.18-.67.31-1.03.4-.36.08-.72.13-1.09.13-.44,0-.85-.07-1.22-.21-.37-.14-.69-.35-.96-.61-.27-.26-.48-.57-.63-.94-.15-.37-.22-.77-.22-1.21s.08-.85.24-1.22.38-.68.65-.94c.28-.26.6-.46.97-.6s.77-.22,1.19-.22c.37,0,.73.06,1.08.17.34.11.65.3.92.58l-.5.53c-.19-.21-.43-.37-.7-.48-.27-.11-.56-.17-.84-.17-.33,0-.63.06-.9.18-.28.12-.52.28-.72.49-.21.21-.37.46-.48.74-.11.29-.17.6-.17.94s.06.65.17.94c.11.29.27.54.48.75.21.21.45.37.74.49.29.12.61.18.95.18.23,0,.47-.03.72-.08.25-.06.48-.14.69-.24v-1.74h-1.3v-.62h1.98v2.78Z"/>
    <path class="cls-1" d="M73.78,46.85h1.45c.27,0,.54.02.81.05.27.03.51.1.72.21s.39.26.52.47.2.48.2.84c0,.42-.13.75-.38,1.01-.25.26-.6.42-1.04.49l1.61,2.61h-.82l-1.54-2.54h-.86v2.54h-.67v-5.66ZM74.45,49.35h.6c.19,0,.38,0,.58-.02.2,0,.38-.04.55-.1s.31-.15.42-.28c.11-.13.16-.31.16-.54,0-.2-.04-.37-.12-.49-.08-.12-.19-.22-.32-.28s-.28-.11-.44-.13c-.16-.02-.33-.03-.49-.03h-.94v1.87Z"/>
    <path class="cls-1" d="M80.67,46.85h.63l2.41,5.66h-.78l-.58-1.39h-2.83l-.58,1.39h-.76l2.5-5.66ZM80.97,47.72h-.02l-1.18,2.78h2.31l-1.12-2.78Z"/>
    <path class="cls-1" d="M84.62,46.85h1.68c.26,0,.51.03.75.08s.45.14.63.26.33.28.44.48c.11.2.16.45.16.74,0,.31-.06.57-.18.77-.12.2-.27.36-.45.48-.18.12-.39.2-.6.25-.22.05-.43.07-.62.07h-1.14v2.54h-.67v-5.66ZM85.29,49.35h1.14c.34,0,.61-.08.82-.23.21-.15.32-.39.32-.71s-.11-.56-.32-.71c-.21-.15-.48-.23-.82-.23h-1.14v1.87Z"/>
    <path class="cls-1" d="M89.52,46.85h.67v2.4h3.02v-2.4h.67v5.66h-.67v-2.64h-3.02v2.64h-.67v-5.66Z"/>
    <path class="cls-1" d="M96.8,50.08l-2.11-3.22h.86l1.59,2.56,1.64-2.56h.81l-2.11,3.22v2.44h-.67v-2.44Z"/>
  </g>
</svg>